<?xml version="1.0" encoding="UTF-8" standalone="no"?>
<svg
   width="1200"
   height="700"
   viewBox="0 0 1200 700"
   version="1.1"
   id="svg16"
   sodipodi:docname="CoreQuarry_isometric_logo.svg"
   inkscape:version="1.4.4 (dcaf3e7, 2026-05-05)"
   xmlns:inkscape="http://www.inkscape.org/namespaces/inkscape"
   xmlns:sodipodi="http://sodipodi.sourceforge.net/DTD/sodipodi-0.dtd"
   xmlns="http://www.w3.org/2000/svg"
   xmlns:svg="http://www.w3.org/2000/svg">
  <defs
     id="defs16">
    <rect
       x="665.69343"
       y="180.43796"
       width="5.2554745"
       height="42.043796"
       id="rect22" />
    <rect
       x="677.9562"
       y="176.93431"
       width="3.5036496"
       height="24.525547"
       id="rect21" />
    <rect
       x="674.45255"
       y="178.68613"
       width="103.35766"
       height="14.014599"
       id="rect17" />
  </defs>
  <sodipodi:namedview
     id="namedview16"
     pagecolor="#ffffff"
     bordercolor="#000000"
     borderopacity="0.25"
     inkscape:showpageshadow="2"
     inkscape:pageopacity="0.0"
     inkscape:pagecheckerboard="0"
     inkscape:deskcolor="#d1d1d1"
     showgrid="false"
     inkscape:zoom="0.57083333"
     inkscape:cx="747.15328"
     inkscape:cy="658.68613"
     inkscape:window-width="1102"
     inkscape:window-height="855"
     inkscape:window-x="272"
     inkscape:window-y="73"
     inkscape:window-maximized="0"
     inkscape:current-layer="svg16" />
  <rect
     width="100%"
     height="100%"
     fill="#ffffff"
     id="rect1" />
  <!-- Isometric layered quarry mark -->
  <g
     transform="translate(220,140)"
     id="g13">
    <!-- outer layer -->
    <polygon
       points="0,120 160,20 320,120 160,220"
       fill="#1e3a5f"
       id="polygon1" />
    <polygon
       points="160,220 320,120 320,300 160,400"
       fill="#284d78"
       id="polygon2" />
    <polygon
       points="0,120 160,220 160,400 0,300"
       fill="#17324f"
       id="polygon3" />
    <!-- middle layer -->
    <polygon
       points="55,140 160,75 265,140 160,205"
       fill="#3a6ea5"
       id="polygon4" />
    <polygon
       points="160,205 265,140 265,255 160,320"
       fill="#4b7fba"
       id="polygon5" />
    <polygon
       points="55,140 160,205 160,320 55,255"
       fill="#2f5f92"
       id="polygon6" />
    <!-- inner layer -->
    <polygon
       points="95,155 160,115 225,155 160,195"
       fill="#76a9e8"
       id="polygon7" />
    <polygon
       points="160,195 225,155 225,225 160,265"
       fill="#8ab8f0"
       id="polygon8" />
    <polygon
       points="95,155 160,195 160,265 95,225"
       fill="#679ad9"
       id="polygon9" />
    <!-- extracted core cube -->
    <g
       transform="translate(0,-35)"
       id="g12">
      <polygon
         points="130,150 160,132 190,150 160,168"
         fill="#f8fbff"
         id="polygon10" />
      <polygon
         points="160,168 190,150 190,182 160,200"
         fill="#ddeafb"
         id="polygon11" />
      <polygon
         points="130,150 160,168 160,200 130,182"
         fill="#eef5ff"
         id="polygon12" />
    </g>
    <!-- excavation shadow -->
    <polygon
       points="125,180 160,160 195,180 160,200"
       fill="#c7d9ef"
       opacity="0.7"
       id="polygon13" />
  </g>
  <!-- Wordmark -->
  <text
     x="470"
     y="280"
     font-family="Arial, Helvetica, sans-serif"
     font-size="96px"
     font-weight="700"
     fill="#17365d"
     id="text13"
     style="white-space:pre;inline-size:541.452;display:inline"
     transform="translate(31.532847,-70.072993)"
     xml:space="preserve"><tspan
       x="470"
       y="280"
       id="tspan2"><tspan
         style="fill:#172f5d"
         id="tspan1">CoreQuarry</tspan></tspan></text>
  <text
     x="475"
     y="345"
     font-family="Arial, Helvetica, sans-serif"
     font-size="34px"
     fill="#4f86c6"
     id="text14"
     style="white-space:pre;inline-size:516.662;display:inline"
     transform="translate(82.335766,-68.321167)"
     xml:space="preserve"><tspan
       x="475"
       y="345"
       id="tspan4"><tspan
         style="fill:#4f92c6"
         id="tspan3">Lexical • Structural • Semantic</tspan></tspan></text>
  <line
     x1="482.00729"
     y1="333.21167"
     x2="1037.0073"
     y2="333.21167"
     stroke="#4f86c6"
     stroke-width="3"
     id="line14" />
  <text
     x="571.35034"
     y="393.46716"
     font-family="Arial, Helvetica, sans-serif"
     font-size="28px"
     fill="#4a5568"
     id="text15"><tspan
       style="fill:#4a5f68;fill-opacity:1"
       id="tspan20">Hybrid Knowledge Retrieval</tspan></text>
  <text
     x="506.53284"
     y="477.73721"
     font-family="Arial, Helvetica, sans-serif"
     font-size="22px"
     fill="#6b7280"
     id="text16"><tspan
       style="fill:#806b80;fill-opacity:1"
       id="tspan21">Excavate knowledge from complex information</tspan></text>
  <text
     xml:space="preserve"
     id="text17"
     style="writing-mode:lr-tb;direction:ltr;white-space:pre;shape-inside:url(#rect17);display:inline;fill:#000000" />
  <text
     xml:space="preserve"
     id="text21"
     style="writing-mode:lr-tb;direction:ltr;white-space:pre;shape-inside:url(#rect21);display:inline;fill:#806b80;fill-opacity:1" />
  <text
     xml:space="preserve"
     id="text22"
     style="writing-mode:lr-tb;direction:ltr;white-space:pre;shape-inside:url(#rect22);display:inline;fill:#806b80;fill-opacity:1" />
</svg>
